<svg xmlns="http://www.w3.org/2000/svg" height="1024" preserveAspectRatio="none" style="display: block;" version="1.1" viewBox="0 0 2048 2048" width="1024">
<path d="M 0 0 L 2048 0 L 2048 2048 L 0 2048 L 0 0 z" fill="rgb(255,255,255)" transform="translate(0,0)"></path>
<path d="M 1018.48 421.057 C 1024.38 420.396 1027.2 420.536 1032.55 423.352 C 1055.3 435.324 1077.93 447.536 1100.58 459.7 C 1153.31 487.999 1205.84 516.667 1258.17 545.703 L 1329.2 584.605 C 1339.14 590.167 1354.29 597.063 1361.9 604.619 C 1364.33 615.626 1363.69 642.525 1363.72 655.305 L 1363.8 741.327 L 1363.91 924.59 C 1363.91 957.72 1363.92 990.973 1363.63 1024.11 C 1363.59 1028.23 1363.28 1031.33 1361.77 1035.14 C 1360.08 1039.38 1356.73 1041.24 1352.71 1043.4 C 1330.63 1055.25 1307.77 1066.45 1285.4 1077.75 L 1189 1127.55 L 1090.15 1178.3 C 1071.84 1187.7 1047.37 1201.03 1028.78 1208.68 C 1023.69 1210.31 1019.89 1210.76 1014.9 1208.38 C 996.615 1199.62 978.915 1189.7 960.817 1180.56 C 915.852 1158.12 871.037 1135.38 826.374 1112.35 L 735.869 1066.33 C 722.146 1059.31 698.613 1048.3 686.954 1039.99 C 684.368 1028.29 685.083 986.276 685.054 971.34 L 684.971 834.996 L 684.965 686.693 C 684.969 664.573 683.698 623.807 686.895 602.967 C 692.627 597.301 716.444 584.983 725.006 580.207 L 794.526 541.655 C 841.003 516.025 887.64 490.685 934.432 465.635 C 959.881 451.843 992.574 432.949 1018.48 421.057 z" fill="rgb(31,30,30)" transform="translate(0,0)"></path>
<path d="M 953.234 648.753 C 980.775 621.245 1019.78 628.692 1030.1 668.173 C 1033.71 666.339 1032.13 666.266 1035.21 666.849 C 1054.44 662.594 1074.12 661.263 1091.66 672.613 C 1099.9 677.889 1105.72 686.221 1107.83 695.78 C 1109.09 701.723 1108.02 709.849 1109.9 713.949 L 1111.53 714.067 C 1114.14 710.174 1113.34 702.535 1112.96 697.96 C 1135.28 690.716 1157.71 698.066 1165.18 721.73 C 1169.7 736.053 1167.05 749.067 1168.86 763.051 C 1172.03 765.477 1172.92 764.012 1172.51 760.561 C 1172.59 753.015 1172.56 745.174 1172.77 737.658 C 1209.21 744.05 1212.31 775.006 1206.47 805.407 C 1234.87 815.884 1240.07 838.128 1231.26 865.068 C 1217.3 850.373 1208.88 848.565 1189.13 850.591 C 1193.96 825.336 1187.9 809.466 1162.49 800.063 C 1150.17 779.388 1131.66 771.161 1108.86 783.802 C 1105.28 785.789 1098.84 790.493 1097.53 794.527 C 1098.87 795.36 1099.85 796 1101.54 795.074 C 1112.03 789.296 1113.05 782.035 1126.73 782.096 C 1140.05 782.155 1152.99 788.011 1157.85 801.428 C 1159.68 806.958 1157.61 814.658 1160.2 820.829 L 1161.96 821.174 C 1163.65 819.254 1163.16 808.667 1163.22 805.176 C 1184.01 814.463 1191.25 829.311 1183.66 851.879 C 1180.96 859.905 1166.11 870.874 1164.79 875.998 L 1166.17 877.658 C 1174.9 875.239 1190.18 842.259 1216.13 858.108 C 1237.2 870.984 1234.59 896.606 1223.67 913.967 C 1213.85 929.569 1198.24 940.629 1180.27 944.71 C 1174.93 945.919 1156.96 948.295 1152.15 946.181 C 1151.85 947.294 1150.65 951.439 1150.54 952.321 C 1155.46 951.642 1158.88 951.221 1163.88 950.279 C 1153.87 961.206 1149.93 965.566 1138.2 974.642 C 1133.97 977.935 1118.14 988.035 1112.99 989.322 C 1087.64 1000.64 1064.27 1002.45 1036.94 1001.91 C 1036.69 996.701 1035.82 985.438 1037.11 980.909 C 1036.07 979.51 1035.69 979.422 1034.29 978.307 C 1077.24 969.019 1080.09 919.061 1056.74 888.777 C 1044.94 873.188 1027.35 863.024 1007.95 860.59 C 1012.65 859.719 1013.74 860.321 1018.17 860.133 L 1017.94 857.693 L 1018.28 860.065 L 1018.71 858.484 L 1018.18 857.788 C 1014.53 857.659 1011.35 857.669 1007.69 857.732 L 1009.69 857.346 C 1010.68 856.404 1011.06 856.753 1013.03 856.511 C 980.539 855.048 962.693 852.997 938.582 831.782 C 936.257 831.48 933.962 830.947 931.657 830.517 C 920.432 829.818 902.265 823.982 895.72 814.681 C 893.105 810.967 888.029 803.812 884.659 801.658 L 883.982 802.975 C 884.081 809.584 888.798 814.316 892.894 819.417 L 891.177 820.311 C 877.427 827.308 878.343 836.153 859.141 837.878 C 846.104 839.048 833.24 837.274 822.742 828.559 C 814.573 821.805 809.616 811.93 809.08 801.344 C 808.181 785.177 815.582 771.509 826.174 760.101 C 837.316 768.559 842.289 770.272 855.556 775.483 C 851.618 782.712 846.604 801.338 854.661 806.745 C 855.341 806.614 856.02 806.483 856.7 806.352 C 856.102 796.284 852.624 785.775 860.374 777.241 C 874.216 761.998 902.443 759.724 921.667 763.918 C 928.287 765.362 938.925 769.635 944.646 769.132 L 944.835 767.849 C 940.134 763.797 933.943 761.945 928.01 760.55 C 898.739 753.67 883.705 756.839 858.843 771.791 C 826.505 760.533 811.083 744.681 835.464 709.492 C 847.469 692.165 871.161 688.79 891.033 686.517 C 895.542 663.808 912.053 643.24 937.911 650.553 C 942.611 651.882 948.277 655.818 952.524 658.465 C 953.997 655.556 953.386 652.165 953.234 648.753 z" fill="rgb(245,121,62)" transform="translate(0,0)"></path>
<path d="M 944.335 708.951 C 976.206 708.314 987.633 729.877 989.855 758.074 C 1011.17 751.292 1025.08 753.353 1040.6 770.355 C 1043.39 765.402 1045.12 761.394 1049.49 757.812 L 1050.78 757.908 C 1050.92 763.996 1046.26 769.771 1042.87 774.839 L 1043.27 776.195 C 1045.79 784.996 1044.82 787.582 1046.16 796.254 C 1067.07 800.184 1072.7 799.395 1082.85 820.352 C 1114.13 822.84 1136.37 853.29 1142.84 882.159 C 1144.06 887.625 1142.13 894.826 1142.1 899.495 C 1142.09 900.535 1153.49 917.036 1154.46 918.736 L 1155.78 918.92 C 1175.55 921.516 1182.64 913.171 1194.1 899.169 L 1195.49 899.518 C 1196.29 912.542 1175.56 923.686 1163.26 923.848 C 1160.59 923.895 1157.92 923.706 1155.28 923.283 C 1154.57 932.35 1153.89 937.292 1152.15 946.181 C 1151.85 947.294 1150.65 951.439 1150.54 952.321 C 1155.46 951.642 1158.88 951.221 1163.88 950.279 C 1153.87 961.206 1149.93 965.566 1138.2 974.642 C 1133.97 977.935 1118.14 988.035 1112.99 989.322 C 1087.64 1000.64 1064.27 1002.45 1036.94 1001.91 C 1036.69 996.701 1035.82 985.438 1037.11 980.909 C 1036.07 979.51 1035.69 979.422 1034.29 978.307 C 1077.24 969.019 1080.09 919.061 1056.74 888.777 C 1044.94 873.188 1027.35 863.024 1007.95 860.59 C 1012.65 859.719 1013.74 860.321 1018.17 860.133 L 1017.94 857.693 L 1018.28 860.065 L 1018.71 858.484 L 1018.18 857.788 C 1014.53 857.659 1011.35 857.669 1007.69 857.732 L 1009.69 857.346 C 1010.68 856.404 1011.06 856.753 1013.03 856.511 C 1015.16 855.983 1017.28 855.405 1019.38 854.779 C 1031.29 851.178 1029.6 847.063 1034.64 837.54 L 1035.98 837.434 L 1037.69 839.555 C 1038.93 847.997 1027.85 856.32 1020.78 858.992 C 1040.58 865.702 1047.08 871.514 1060.99 886.859 C 1073.51 882.466 1074.78 878.655 1085.11 871.279 C 1084.54 872.47 1083.95 873.651 1083.34 874.821 C 1078.19 884.555 1073.84 887.477 1063.6 890.577 C 1078.52 914.238 1080.47 938.539 1066.17 963.028 C 1067.21 964.708 1068.29 966.365 1069.4 967.997 C 1093.37 1002.88 1149.33 974.184 1150.24 936.007 C 1150.64 919.183 1148.86 916.077 1138.77 903.525 C 1132.81 907.756 1116.97 916.534 1109.85 917.275 L 1108.56 916.212 L 1108.55 913.883 C 1117.08 907.021 1138.62 904.677 1139.31 890.774 C 1140.56 865.638 1114.29 830.837 1089.61 824.943 C 1081.77 823.072 1085.06 834.543 1080.84 838.727 L 1079.04 838.58 C 1078.58 827.411 1079.03 816.611 1069.96 808.332 C 1062.87 801.857 1047.32 799.049 1039.02 804.201 C 1032.41 808.3 1027.73 814.971 1019.84 817.528 L 1019.54 816.347 C 1023.69 807.889 1033.8 801.946 1041.8 797.462 C 1041.77 786.42 1040.87 777.668 1032.98 768.867 C 1027.13 762.335 1018.54 758.763 1010.04 758.647 C 971.164 758.116 972.298 805.553 966.427 811.081 C 960.978 797.639 975.666 772.045 984.697 761.836 C 985.008 751.956 985.321 746.719 980.421 735.531 C 971.216 714.579 942.897 703.685 927.127 723.889 C 924.196 727.645 924.743 737.84 919.16 739.477 L 918.267 737.831 C 919.601 724.438 923.873 715.37 937.387 710.89 C 940.399 711.189 941.508 710.112 944.335 708.951 z" fill="rgb(18,11,9)" transform="translate(0,0)"></path>
<path d="M 1063.66 966.754 C 1075.98 985.296 1086.81 989.435 1109.2 987.511 C 1111.29 987.697 1111.17 987.881 1112.99 989.322 C 1087.64 1000.64 1064.27 1002.45 1036.94 1001.91 C 1036.69 996.701 1035.82 985.438 1037.11 980.909 C 1046.66 980.178 1056.56 972.625 1063.66 966.754 z" fill="rgb(255,255,255)" transform="translate(0,0)"></path>
<path d="M 1150.54 952.321 C 1155.46 951.642 1158.88 951.221 1163.88 950.279 C 1153.87 961.206 1149.93 965.566 1138.2 974.642 L 1136.92 972.826 C 1143.29 966.7 1147.72 960.794 1150.54 952.321 z" fill="rgb(255,255,255)" transform="translate(0,0)"></path>
<path d="M 1136.92 972.826 L 1138.2 974.642 C 1133.97 977.935 1118.14 988.035 1112.99 989.322 C 1111.17 987.881 1111.29 987.697 1109.2 987.511 C 1122.33 982.374 1125.15 982.956 1136.92 972.826 z" fill="rgb(183,180,180)" transform="translate(0,0)"></path>
<path d="M 1030.1 668.173 C 1033.71 666.339 1032.13 666.266 1035.21 666.849 C 1035.31 671.469 1035.1 676.628 1035.01 681.294 C 1051.87 689.519 1059.99 697.268 1067.72 714.476 C 1084.48 718.665 1089.65 721.198 1100.28 734.894 C 1113.85 730.669 1128.04 728.256 1140.8 736.817 C 1144.66 739.409 1148.87 746.319 1148.32 750.943 C 1142.68 751.355 1142.63 727.997 1102.07 737.99 C 1105.44 745.597 1107.66 748.664 1106.68 756.898 L 1105.8 757.386 C 1099.92 748.59 1102.26 739.134 1089.51 728.988 C 1079.83 721.276 1067.18 716.88 1054.94 722.475 C 1050.1 724.687 1047.96 729.844 1042.08 730.237 L 1041.53 729.379 C 1045.25 722.45 1056.48 717.272 1063.76 715.18 C 1053.45 697.009 1048.07 693.522 1030.22 683.324 C 1030.75 676.707 1030.93 674.85 1030.1 668.173 z" fill="rgb(18,11,9)" transform="translate(0,0)"></path>
<path d="M 937.387 710.89 C 934.361 709.58 931.261 708.573 927.996 708.032 L 923.497 707.298 C 899.616 703.529 871.991 712.624 867.26 739.513 C 868.404 740.447 865.347 748.015 863.682 744.298 C 858.067 731.763 876.943 712.507 884.614 708.632 C 902.695 699.498 927.425 701.209 944.335 708.951 C 941.508 710.112 940.399 711.189 937.387 710.89 z" fill="rgb(18,11,9)" transform="translate(0,0)"></path>
<path d="M 931.657 830.517 C 924.338 819.075 926.003 819.881 922.887 807.846 C 919.912 796.353 925.657 784.072 926.091 792.497 C 927.092 811.9 925.283 816.145 938.582 831.782 C 936.257 831.48 933.962 830.947 931.657 830.517 z" fill="rgb(18,11,9)" transform="translate(0,0)"></path>
<path d="M 954.575 672.217 C 991.009 669.32 1010.11 694.711 1006.26 728.978 C 1006.13 730.167 1005.19 730.826 1004.3 731.386 L 1003.26 731.086 C 1001.65 729.108 1002.43 723.955 1002.51 721.358 C 1002.75 689.82 980.628 670.114 948.381 678.456 C 945.626 679.169 944.738 680.624 942.698 678.139 C 941.979 673.711 951.75 672.737 954.575 672.217 z" fill="rgb(18,11,9)" transform="translate(0,0)"></path>
<path d="M 1036.27 451.587 C 1044.17 455.418 1054.06 461.616 1062.18 465.923 L 1133.84 504.405 L 1327.48 610.007 C 1305.47 622.843 1279.45 635.298 1256.52 647.035 C 1236.01 657.529 1215.44 667.903 1194.82 678.159 C 1181.36 665.318 1163.94 656.18 1147.81 647.058 C 1148.43 636.016 1150.98 614.828 1148.28 605.273 C 1141.99 600.195 1103.54 590.892 1093.91 588.891 C 1087.64 596.814 1076.98 616.086 1071.8 625.206 C 1060.3 624.837 1047.6 625.129 1036 625.181 C 1035.74 567.317 1035.83 509.451 1036.27 451.587 z" fill="rgb(255,255,255)" transform="translate(0,0)"></path>
<path d="M 708.961 628.4 C 729.455 640.442 753.102 649.936 773.867 662.016 C 766.826 675.175 757.801 694.36 752.257 708.135 C 759.193 716.065 774.936 727.413 783.723 734.1 C 779.046 751.721 777.316 764.759 780.062 782.744 C 772.56 789.528 760.823 798.342 752.633 804.815 C 755.929 817.187 760.148 829.702 764.224 841.843 C 783.516 843.857 808.984 844.616 828.645 845.488 C 826.647 866.59 828.26 878.216 845.1 893.003 C 843.381 901.506 843.419 909.295 844.46 917.857 C 846.084 926.62 846.984 930.341 849.826 938.767 C 807.375 964.033 753.042 991.982 708.925 1015.43 C 707.452 887.391 709.123 756.68 708.961 628.4 z" fill="rgb(255,255,255)" transform="translate(0,0)"></path>
<path d="M 1010.82 452.01 C 1014.41 456.698 1011.29 605.73 1012 624.14 C 1012.43 635.102 982.394 625.512 971.546 631.244 C 958.739 638.011 958.273 638.204 947.602 647.859 C 941.108 637.051 934.049 626.191 927.374 615.455 C 922.568 607.724 916.062 596.198 910.351 589.476 C 900.247 590.817 870.518 596.714 862.333 601.636 C 858.657 606.519 859.885 629.887 859.913 637.548 C 846.909 646.274 839.828 651.904 828.303 662.122 C 817.768 656.603 807.254 651.906 796.442 646.981 C 772.269 636.374 745.677 621.17 720.476 609.468 C 743.909 599.446 773.004 579.72 796.121 567.606 C 867.997 529.942 938.546 488.816 1010.82 452.01 z" fill="rgb(255,255,255)" transform="translate(0,0)"></path>
<path d="M 1337.78 631.949 L 1338.68 632.553 C 1340.62 638.155 1339.22 717.549 1339.21 731.314 L 1339.1 1009.36 C 1317.82 1000.67 1284.5 983.339 1263.52 972.442 C 1265.81 967.007 1269.83 959.482 1272.54 954.064 C 1267.31 945.774 1262.87 941.426 1256.24 934.281 C 1252.85 930.676 1250.74 927.88 1247.77 923.99 C 1255.79 905.026 1260.09 891.705 1263.37 871.431 C 1276.34 865.955 1290.01 863.819 1302.83 857.857 C 1299.02 807.918 1318.56 805.089 1261.94 794.675 C 1256.66 772.182 1254.6 762.625 1243.49 742.132 C 1251.98 732.353 1262.7 722.076 1270.44 712.058 C 1265.2 700.262 1256.34 689.24 1250.72 676.971 C 1255.68 673.97 1261.56 671.117 1266.75 668.486 C 1290.47 656.477 1313.84 643.464 1337.78 631.949 z" fill="rgb(255,255,255)" transform="translate(0,0)"></path>
<path d="M 820.5 982.904 C 825.5 984.536 834.37 1004.96 838.709 1011.88 C 851.547 1010.25 872.345 1004.8 885.556 1001.71 C 900.944 1017.35 910.917 1026.39 929.541 1038.4 C 928.288 1049.45 928.029 1070.64 927.966 1082.1 C 938.034 1087.25 971.8 1099.28 982.679 1102.49 C 992.055 1092.55 998.614 1076.17 1006.22 1068.75 C 1010.25 1068.24 1008.67 1067.67 1011.37 1069.55 C 1014 1078.89 1012.11 1164.7 1012.12 1179.42 C 1002.26 1175.46 990.584 1169.04 980.965 1164.08 C 895.441 1121.47 810.323 1078.04 725.622 1033.82 C 756.99 1016.37 788.619 999.396 820.5 982.904 z" fill="rgb(255,255,255)" transform="translate(0,0)"></path>
<path d="M 1250.74 992.27 C 1258.52 995.297 1270.34 1001.71 1278.08 1005.61 C 1294.26 1013.88 1310.54 1021.93 1326.92 1029.79 C 1314.65 1036.65 1300.93 1043.89 1288.3 1050.05 C 1211.47 1087.53 1136.3 1128.98 1059.8 1166.96 C 1051.71 1171.07 1044.56 1174.85 1036.04 1178.08 C 1036.95 1142.76 1036.15 1104.62 1036.14 1069.12 C 1047.77 1068.77 1061.2 1067.32 1072.66 1065.58 C 1081.5 1077.09 1087.64 1087.73 1097.78 1098.74 C 1115.03 1093.49 1135.42 1086.75 1151.82 1079.42 C 1152.44 1066.7 1151.4 1047.49 1151.24 1034.11 C 1166.2 1026.16 1185.33 1009.35 1197.41 997.018 C 1206.49 999.303 1231.2 1006.09 1239.19 1006.63 C 1244.95 1004.81 1247.81 997.619 1250.74 992.27 z" fill="rgb(255,255,255)" transform="translate(0,0)"></path>
<path d="M 868.994 842.024 C 867.383 846.053 864.914 850.68 865.948 854.608 C 872.182 854.87 874.02 839.471 879.845 834.402 C 886.045 829.006 889.96 826.696 897.584 823.856 C 912.608 830.886 919.14 834.704 935.75 835.212 C 943.286 841.779 947.761 845.352 956.872 849.749 C 961.537 852 975.76 856.526 978.732 859.281 C 989.778 869.52 986.211 882.282 987.426 891.687 L 989.308 892.18 C 997.584 887.051 988.252 865.116 984.559 858.592 C 991.646 859.343 1001.06 860.671 1007.95 860.59 C 1027.35 863.024 1044.94 873.188 1056.74 888.777 C 1080.09 919.061 1077.24 969.019 1034.29 978.307 C 999.029 987.081 966.865 981.195 951.94 943.999 C 964.242 939.879 974.82 934.815 982.951 924.565 C 997.85 925.776 1029.12 924.664 1042.03 917.551 L 1041.98 916.223 C 1040.67 915.593 1038.63 915.003 1037.15 915.332 C 1011.64 920.981 976.988 927.507 955.888 907.583 C 948.977 901.057 959.086 889.775 954.099 884.089 L 952.909 884.576 C 950.968 886.925 950.796 887.056 950.306 890.083 L 948.501 901.014 C 931.353 901.175 917.939 897.972 908.176 882.638 C 893.191 887.495 870.345 897.489 855.331 893.035 C 832.009 886.115 830.029 860.802 835.543 840.968 C 845.643 842.821 858.572 842.27 868.994 842.024 z" fill="rgb(245,121,62)" transform="translate(0,0)"></path>
<path d="M 904.958 888.146 C 905.576 888.463 911.138 893.381 912.378 894.269 C 925.794 903.873 932.687 905.743 948.585 906.083 C 958.606 917.853 965.18 919.554 979.404 923.433 C 967.428 934.069 953.814 940.168 938.097 942.931 C 928.472 943.295 918.856 941.981 909.682 939.048 C 887.541 932.196 874.236 919.812 863.668 899.703 C 878.417 898.227 890.922 893 904.958 888.146 z" fill="rgb(245,121,62)" transform="translate(0,0)"></path>
<path d="M 947.041 945.51 C 947.957 945.771 948.469 946.005 948.792 946.98 C 951.494 954.931 955.948 962.173 961.827 968.17 C 976.58 983.172 991.625 985.696 1011.24 986.134 C 1011.21 990.636 1011.27 995.137 1011.43 999.636 C 1008.82 999 1005.4 998.245 1002.88 997.514 L 999.164 996.418 C 967.966 986.239 950.898 972.761 931.28 947.03 C 937.545 946.707 940.843 946.336 947.041 945.51 z" fill="rgb(255,255,255)" transform="translate(0,0)"></path>
<path d="M 845.1 893.003 C 847.887 891.817 847.553 892.873 849.284 895.275 C 852.886 896.409 856.065 897.908 859.525 899.404 C 859.609 899.602 860.705 902.106 860.801 902.537 C 862.174 908.699 869.083 914.622 870.698 919.783 C 871.305 919.638 871.913 919.493 872.52 919.347 C 875.466 919.657 870.555 923.465 870.566 923.455 L 870.261 923.733 C 872.119 924.422 884.104 929.757 883.383 931.674 C 882.184 932.38 879.285 932.752 877.998 932.725 C 862.136 932.386 848.774 931.098 847.91 912.761 C 846.464 915.294 846.268 915.688 844.46 917.857 C 843.419 909.295 843.381 901.506 845.1 893.003 z" fill="rgb(245,121,62)" transform="translate(0,0)"></path>
<path d="M 847.91 912.761 C 847.816 912.054 847.823 912.343 847.854 911.862 C 848.462 911.236 850.614 913.989 850.806 914.193 C 855.854 919.567 863.447 921.646 870.261 923.733 C 872.119 924.422 884.104 929.757 883.383 931.674 C 882.184 932.38 879.285 932.752 877.998 932.725 C 862.136 932.386 848.774 931.098 847.91 912.761 z" fill="rgb(245,121,62)" transform="translate(0,0)"></path>
<path d="M 845.1 893.003 C 847.887 891.817 847.553 892.873 849.284 895.275 C 848.749 898.248 847.032 904.47 848.825 907.027 C 853.609 913.844 863.25 917.332 870.698 919.783 C 871.305 919.638 871.913 919.493 872.52 919.347 C 875.466 919.657 870.555 923.465 870.566 923.455 L 870.261 923.733 C 863.447 921.646 855.854 919.567 850.806 914.193 C 850.614 913.989 848.462 911.236 847.854 911.862 C 847.823 912.343 847.816 912.054 847.91 912.761 C 846.464 915.294 846.268 915.688 844.46 917.857 C 843.419 909.295 843.381 901.506 845.1 893.003 z" fill="rgb(18,11,9)" transform="translate(0,0)"></path>
<path d="M 851.786 932.587 C 866.687 937.859 875.112 938.662 890.964 936.086 C 893.921 937.439 905.024 940.128 898.786 942.777 C 883.839 947.505 880.616 948.506 865.008 947.985 C 857.562 942.425 856.6 941.125 851.786 932.587 z" fill="rgb(245,121,62)" transform="translate(0,0)"></path>
<path d="M 908.621 944.016 C 923.953 943.223 906.983 949.534 902.969 950.721 C 894.965 953.087 889.932 953.855 881.764 954.302 C 879.456 954.149 876.652 954.125 874.491 953.525 C 874.525 953.451 904.73 945.358 908.621 944.016 z" fill="rgb(245,121,62)" transform="translate(0,0)"></path>
<path d="M 1168.86 763.051 C 1169.47 756.059 1169.29 748.993 1169.43 741.976 C 1169.44 741.005 1169.04 737.847 1170.91 738.732 C 1171.93 740.614 1171.63 755.944 1172.51 760.561 C 1172.92 764.012 1172.03 765.477 1168.86 763.051 z" fill="rgb(18,11,9)" transform="translate(0,0)"></path>
<path d="M 190.773 1264.97 C 219.826 1264.01 218.988 1282.12 225.695 1306.29 C 237.008 1347.07 248.892 1387.63 259.417 1428.61 C 261.999 1438.66 264.511 1449.18 267.701 1459.04 C 272.977 1442.88 277.367 1424.27 281.984 1407.69 L 307.033 1319.78 C 311.35 1304.62 315.597 1287.89 320.607 1273.01 C 323.774 1263.61 341.885 1263.91 349.749 1267.69 C 354.714 1270.13 358.624 1274.29 360.756 1279.39 C 367.774 1296.18 371.626 1322.73 377.099 1340.95 C 388.562 1379.12 397.591 1419.65 410.934 1457.12 C 419.062 1427.21 429.68 1396.91 438.068 1366.89 C 446.595 1336.68 453.761 1307.08 463.36 1277.14 C 468.254 1261.87 488.299 1261.41 494.82 1272.61 C 501.492 1284.07 489.771 1312.48 485.637 1325.89 C 476.548 1365.52 463.151 1405.73 452.249 1444.99 C 446.227 1467.2 438.649 1490.03 431.631 1511.72 C 424.988 1532.26 397.466 1527.39 391.192 1515.2 C 385.162 1503.49 378.99 1477.73 375.066 1464.28 L 338.859 1335.54 C 337.206 1341.42 335.763 1347.4 334.247 1353.47 C 320.924 1406.87 304.574 1459.1 288.334 1511.65 C 282.838 1529.44 261.829 1530.03 250.369 1517.78 C 248.04 1515.29 242.922 1501.79 241.897 1498.22 C 222.354 1430 202.485 1361.78 183.965 1293.29 C 180.533 1280.6 180.23 1273.49 190.773 1264.97 z" fill="rgb(31,30,30)" transform="translate(0,0)"></path>
<path d="M 1364.73 1260.2 C 1366.82 1260.07 1368.89 1259.95 1370.98 1260.03 C 1375.27 1260.18 1378.99 1260.96 1381.89 1264.37 C 1392.79 1277.18 1387.9 1346.9 1387.07 1365.89 C 1406.9 1356.18 1416.15 1349.94 1439.37 1349.59 C 1488.91 1348.83 1526.48 1389.41 1526.04 1438.21 C 1525.79 1465.81 1514.28 1487.11 1494.24 1506.2 C 1455.8 1534.74 1426.67 1530.25 1387.32 1508.09 C 1381.09 1530.46 1365.15 1531.71 1353.65 1512.27 C 1353.95 1459.29 1353.84 1406.31 1353.32 1353.32 C 1353.15 1329.2 1352.73 1304.75 1353.41 1280.62 C 1353.69 1270.74 1356.08 1265.15 1364.73 1260.2 z" fill="rgb(31,30,30)" transform="translate(0,0)"></path>
<path d="M 1436.33 1385.76 C 1464.77 1384.18 1489.18 1405.75 1491.13 1434.16 C 1493.07 1462.57 1471.82 1487.26 1443.44 1489.58 C 1424.75 1491.1 1406.69 1482.45 1396.16 1466.93 C 1385.64 1451.42 1384.27 1431.44 1392.58 1414.64 C 1400.9 1397.83 1417.61 1386.8 1436.33 1385.76 z" fill="rgb(255,255,255)" transform="translate(0,0)"></path>
<path d="M 1242.67 1350.42 C 1261.47 1350.06 1277.34 1354.5 1292.9 1365.27 C 1304.16 1349.44 1317.03 1346 1328.92 1363.54 C 1330.37 1402.7 1328.77 1448.8 1329.1 1488.85 C 1337.97 1493.09 1347.99 1499.17 1346.19 1510.66 C 1345.46 1515.2 1342.93 1519.24 1339.17 1521.87 C 1324.28 1532.45 1308.26 1519.93 1300.21 1507.07 C 1295.08 1510.49 1290.77 1513.03 1285.44 1516.08 C 1274.76 1521.04 1263.94 1525.11 1252.14 1525.9 C 1133.7 1533.75 1122.95 1358.92 1242.67 1350.42 z" fill="rgb(245,121,62)" transform="translate(0,0)"></path>
<path d="M 1237.2 1386.92 C 1265.55 1382.9 1291.8 1402.6 1295.85 1430.95 C 1299.89 1459.3 1280.21 1485.56 1251.86 1489.62 C 1223.49 1493.69 1197.2 1473.98 1193.15 1445.61 C 1189.1 1417.23 1208.83 1390.95 1237.2 1386.92 z" fill="rgb(255,255,255)" transform="translate(0,0)"></path>
<path d="M 552.179 1350.27 C 600.315 1346.21 642.661 1381.86 646.875 1429.98 C 651.089 1478.11 615.583 1520.57 567.475 1524.95 C 519.139 1529.34 476.429 1493.63 472.195 1445.28 C 467.961 1396.93 503.814 1354.34 552.179 1350.27 z" fill="rgb(31,30,30)" transform="translate(0,0)"></path>
<path d="M 554.452 1386.06 C 582.858 1383.16 608.266 1403.77 611.278 1432.17 C 614.29 1460.56 593.772 1486.05 565.388 1489.16 C 536.854 1492.3 511.205 1471.65 508.177 1443.1 C 505.148 1414.56 525.895 1388.99 554.452 1386.06 z" fill="rgb(255,255,255)" transform="translate(0,0)"></path>
<path d="M 1612.64 1352.04 C 1643.68 1347.03 1675.03 1359.1 1694.71 1383.63 C 1714.38 1408.17 1719.35 1441.39 1707.72 1470.61 C 1696.08 1499.83 1669.64 1520.54 1638.48 1524.83 C 1591.07 1531.36 1547.24 1498.54 1540.16 1451.21 C 1533.08 1403.88 1565.39 1359.67 1612.64 1352.04 z" fill="rgb(31,30,30)" transform="translate(0,0)"></path>
<path d="M 1621.21 1386.48 C 1649.46 1383.59 1674.8 1403.91 1678.11 1432.12 C 1681.43 1460.32 1661.5 1485.97 1633.36 1489.72 C 1614.76 1492.2 1596.27 1484.46 1584.98 1469.48 C 1573.69 1454.5 1571.34 1434.59 1578.85 1417.4 C 1586.36 1400.2 1602.54 1388.39 1621.21 1386.48 z" fill="rgb(255,255,255)" transform="translate(0,0)"></path>
<path d="M 789.925 1260.22 C 797.449 1261.06 805.872 1264.22 807.289 1272.36 C 810.32 1289.77 809.173 1310.58 809.223 1328.2 L 809.806 1378.82 C 809.833 1389.49 804.54 1419.11 825.297 1410.93 C 832.593 1408.05 836.273 1401.56 842.233 1397.25 C 858.989 1385.15 888.767 1340.75 911.585 1354.86 C 925.911 1366.02 909.622 1382.99 900.795 1390.67 C 884.587 1404.76 869.95 1417.59 856.044 1433.74 C 861.318 1440.29 870.295 1448.01 876.452 1453.96 C 890.916 1467.94 907.442 1481.8 920.969 1496.52 C 923.903 1502.84 924.528 1508.92 921.889 1515.53 C 920.323 1519.46 917.484 1522.81 913.409 1524.22 C 890.893 1532 845.161 1463.96 823.891 1454.97 C 821.292 1453.87 818.329 1453.36 815.719 1454.77 C 801.309 1462.55 811.724 1500.07 806.063 1514.51 C 804.382 1518.8 801.345 1522.41 797.044 1524.22 C 792.475 1526.15 786.571 1525.78 782.118 1523.71 C 779.024 1522.27 776.671 1519.89 775.672 1516.58 C 770.11 1498.19 775.027 1454.22 775 1432.89 L 774.892 1326.52 C 774.904 1310.37 774.763 1294.23 774.911 1278.09 C 775.01 1267.29 779.689 1262.81 789.925 1260.22 z" fill="rgb(31,30,30)" transform="translate(0,0)"></path>
<path d="M 1073.41 1350.4 C 1099.76 1350.46 1120.04 1357.17 1133.73 1381.41 C 1138.13 1389.28 1141.04 1397.9 1142.3 1406.83 C 1145.61 1429.23 1142.79 1489.9 1142.81 1514 C 1142.81 1524.61 1104.52 1545.58 1108.57 1489.51 C 1110.72 1459.79 1115.91 1395.8 1082.32 1386.67 C 1067.46 1382.63 1059.9 1380.61 1045.02 1386.87 L 1043.7 1387.44 C 1035.81 1391.99 1029.02 1397.78 1025.42 1406.8 C 1017.04 1430.82 1021.02 1461.68 1021.58 1487.07 C 1022.13 1511.87 1019.2 1540.2 986.218 1520.31 C 984.486 1502.42 986.088 1482.05 985.419 1463.78 C 984.248 1431.81 986.079 1399.58 985.164 1367.57 C 984.71 1351.71 1003.44 1346.15 1014.62 1354.84 C 1019.08 1358.26 1019.12 1364.01 1019.77 1369.28 C 1037.86 1357.37 1051.96 1351.84 1073.41 1350.4 z" fill="rgb(31,30,30)" transform="translate(0,0)"></path>
<path d="M 1729.8 1350.23 C 1732.19 1350.06 1734.64 1349.85 1737.04 1349.97 C 1749.34 1350.61 1779.95 1396.33 1789.24 1407.37 C 1801.38 1395.62 1829.76 1356.52 1842.2 1351.7 C 1845.62 1350.37 1849.75 1349.8 1853.08 1351.71 C 1856.41 1353.61 1857.93 1357.23 1859.06 1360.7 C 1865.89 1381.83 1825.12 1416.67 1815.41 1435.98 L 1814.72 1437.37 C 1825.5 1456.4 1864.47 1493.96 1864.65 1512.32 C 1864.68 1516.29 1863.79 1519.72 1860.8 1522.5 C 1856.47 1526.51 1850.47 1525.73 1845.14 1525.22 C 1829.33 1518.64 1803.35 1480.95 1789.85 1466.25 C 1777.88 1479.34 1751.13 1520.59 1738.31 1525.61 C 1734.17 1527.23 1729.53 1527.47 1725.51 1525.36 C 1721.41 1523.2 1718.57 1519.28 1717.36 1514.87 C 1716.11 1510.32 1716.33 1504.78 1718.44 1500.52 C 1722.36 1492.55 1731.05 1485.02 1736.78 1478.12 C 1747.2 1465.6 1757.9 1451.6 1766.25 1437.65 L 1766.92 1436.51 C 1756.3 1415.76 1732.01 1397.53 1720.62 1377.01 C 1714.18 1365.4 1717.82 1355.31 1729.8 1350.23 z" fill="rgb(31,30,30)" transform="translate(0,0)"></path>
<path d="M 734.234 1348.21 C 747.344 1346.84 759.829 1350.57 760.681 1367.48 C 760.396 1380.6 737.696 1386.38 728.64 1389.82 C 696.59 1401.97 694.723 1416.11 695.083 1447.6 C 695.274 1464.32 695.967 1484.15 695.709 1501.35 C 695.476 1516.82 688.732 1527.49 671.919 1526.4 C 668.873 1525.06 663.169 1521.8 662.62 1518.5 C 658.88 1493.17 661.603 1464.13 661.557 1438.39 C 661.533 1424.77 658.935 1367.29 663.32 1357.92 C 664.735 1354.92 667.348 1352.65 670.519 1351.67 C 687.218 1346.43 691.303 1356.39 695.134 1369.25 C 709.809 1357.37 715.781 1352.63 734.234 1348.21 z" fill="rgb(31,30,30)" transform="translate(0,0)"></path>
<path d="M 948.329 1352.04 C 950.161 1352.07 952.048 1352.12 953.852 1352.46 C 958.382 1353.33 965.365 1356.02 967.556 1360.46 C 970.486 1366.41 968.504 1507.82 965.098 1516.54 C 963.038 1521.81 960.045 1524.05 955.051 1526.39 C 942.593 1525.99 934.218 1524.01 933.527 1509.85 C 932.795 1494.86 933.104 1479.91 933.016 1464.89 C 932.757 1431.39 932.816 1397.9 933.196 1364.4 C 937.7 1356.96 940.265 1355.03 948.329 1352.04 z" fill="rgb(31,30,30)" transform="translate(0,0)"></path>
<path d="M 945.428 1286.07 C 976.158 1284.23 980.957 1320.08 954.856 1332.61 C 928.623 1335.12 914.739 1296.97 945.428 1286.07 z" fill="rgb(31,30,30)" transform="translate(0,0)"></path>
<metadata><recraft-signature>{"signed_by": "recraft", "signature_b64": "zyoifWSUk1kAvFieq9K3a02q+QoU3rs+rE2bZ9Tt1qZGDTOVVA5S56W9droxhgR5KAyfQMOI4JZAYO0kIcGHAA==", "signing_algo": "Ed25519", "generation_timestamp": 1775979103, "identifier": "47a78a2e-8fb5-486b-97f6-813ec53cadd3"}</recraft-signature></metadata></svg>